<svg version="1.2" xmlns="http://www.w3.org/2000/svg" viewBox="0 0 3000 2997" width="3000" height="2997">
<style>
.a{fill: white}
.conic-bg {
      fill: conic-gradient(from 60deg, #20df25, #1c5ecb, #ff0101);
    }</style><path fill-rule="evenodd" class="a" d="m700 0h1600c386.6 0 700 313.4 700 700v1597c0 386.6-313.4 700-700 700h-1600c-386.6 0-700-313.4-700-700v-1597c0-386.6 313.4-700 700-700z"/><path fill-rule="evenodd" class="conic-bg" d="m1459.2 353c25-0.1 65.8 0.4 90.6 1 24.8 0.6 50.3 1.3 56.6 1.6 6.3 0.2 15.9 0.8 21.4 1.2 5.4 0.4 18 1.9 27.9 3.4 9.8 1.5 20.2 3 22.9 3.5 2.7 0.4 14.4 2.5 26 4.5 11.5 2.1 25.1 4.6 30.2 5.6 5 1.1 12.4 2.6 16.4 3.5 4 0.9 15.2 3.5 24.8 5.8 9.7 2.2 20.7 5 24.5 6.1 3.8 1.1 9.8 2.9 13.4 3.9 3.5 1.1 14.5 4.6 24.4 7.7 9.9 3.2 25.6 8.4 34.8 11.7 9.3 3.3 22 7.9 28.3 10.2 6.3 2.3 16.3 6.1 22.1 8.4 5.9 2.3 15.9 6.3 22.2 8.9 6.3 2.6 17.3 7.3 24.5 10.5 7.1 3.2 24.7 11.5 39 18.6 14.2 7.1 34.7 17.7 45.4 23.6 10.7 6 21.9 12.3 24.9 14 2.9 1.8 10.8 6.6 17.5 10.8 6.8 4.2 19.2 12.1 27.6 17.7 8.4 5.5 21.1 14.2 28.2 19.2 7.2 5 16.1 11.4 19.9 14.1 3.8 2.8 11 8 16.1 11.8 5 3.7 14.3 10.9 20.6 15.9 6.3 5.1 14.6 11.8 18.3 15 3.8 3.1 9.5 8 12.7 10.8 3.1 2.8 11.2 10 17.9 16 6.7 6.1 17.6 15.9 24.1 21.8 6.5 6 14.5 13.4 17.7 16.5 3.2 3.1 12.2 12.2 19.8 20.1 7.7 8 20.7 22 29 31 8.2 9 19.6 21.8 25.3 28.3 5.6 6.5 13.7 16.1 17.9 21.4 4.3 5.2 13.9 17.6 21.5 27.5 7.6 9.9 17.8 23.5 22.6 30.2 4.8 6.7 10 14.3 11.7 16.8 1.6 2.5 3.9 7.2 5.1 10.5 1.2 3.3 2.1 6.7 2.1 7.6 0 1.1-1.5 3.2-4 5.6-2.3 2.1-8.4 6.4-13.6 9.7-5.2 3.2-20.5 12.3-34 20.1-13.4 7.9-33.4 19.5-44.3 25.8-10.9 6.3-30.4 17.4-43.2 24.6-12.8 7.2-27.8 15.6-33.2 18.5-5.5 3-12.9 6.9-23 11.8l-1.8-1.7c-1-1-4.6-5.2-8.1-9.4-3.4-4.3-10.5-13.2-15.7-19.9-5.2-6.7-16.1-20.7-24.3-31-8.3-10.3-17.6-21.6-20.7-25.2-3.1-3.6-9.3-10.4-13.8-15.2-4.4-4.9-14.3-15.3-22.1-23.4-7.7-8-19.7-20-26.7-26.7-7.1-6.8-17.8-16.8-23.9-22.3-6-5.5-15.2-13.5-20.2-17.9-5.1-4.4-14.4-12-20.7-16.9-6.2-4.8-16.7-12.7-23.2-17.5-6.5-4.8-18.1-13-25.6-18.3-7.6-5.3-19.5-13.2-26.4-17.7-6.9-4.5-19.8-12.4-28.7-17.7-8.8-5.2-20.3-11.9-25.6-14.9-5.2-2.9-15.4-8.2-22.5-11.8-7.2-3.6-20.1-9.8-28.7-13.8-8.6-4-20.5-9.3-26.3-11.9-5.9-2.5-19.3-7.9-29.8-12-10.6-4-26.4-9.9-35.2-13.1-8.8-3.1-23.3-7.9-32.1-10.6-8.8-2.6-21.7-6.2-28.7-7.9-6.9-1.7-20.3-4.8-29.8-6.9-9.4-2.1-24.9-5.3-34.4-7.2-9.4-1.9-22.1-4.2-28.1-5-6-0.9-12.2-1.6-17-1.6l-0.3 770.6-7.3 4.2c-4 2.3-10.5 6-14.5 8.2-4 2.2-9.5 5.2-12.3 6.7-2.7 1.5-9.6 5.2-15.2 8.2-5.7 3.1-17.2 9.2-25.7 13.6-8.4 4.4-18.8 10-23.3 12.4-4.4 2.4-11.2 6.1-22.2 11.9l-10.9-5.7c-5.9-3.2-19.2-10.2-29.5-15.7-10.3-5.5-32.3-17.4-78.7-42.8l-0.1-772-9.3 0.5c-5.2 0.3-16.4 1.8-25.1 3.3-8.6 1.4-22.8 4.2-31.7 6.1-8.8 1.9-22.7 5-30.9 6.9-8.2 1.9-18.9 4.6-23.7 5.8-4.9 1.3-12.9 3.6-18 5.1-5 1.4-15 4.5-22.1 6.8-7.2 2.3-18.5 6.1-25.3 8.4-6.7 2.3-22 8.1-34 12.9-12 4.8-27.6 11.3-34.8 14.5-7.1 3.3-19.5 9.1-27.5 13-8 3.8-21.5 10.7-30.2 15.3-8.6 4.5-19.8 10.6-24.8 13.6-5.1 3-16.6 10-25.6 15.7-9 5.7-20.1 12.7-24.5 15.7-4.4 2.9-13.2 8.9-19.5 13.4-6.3 4.4-18.8 13.6-27.9 20.4-9 6.8-20 15.4-24.4 19.1-4.4 3.7-12.2 10.4-17.2 14.8-5.1 4.4-13.3 11.8-18.4 16.4-5 4.7-14.9 14.1-22 21.1-7.1 6.9-20 20-28.6 29-8.7 9.1-20.6 22-26.5 28.7-6 6.7-14.3 16.5-18.5 21.8-4.2 5.2-11.7 14.9-16.8 21.4-5 6.5-14.2 18.5-20.3 26.7-6.1 8.2-12.4 16.1-13.9 17.4-1.5 1.4-3.5 2.5-4.3 2.5-0.8 0-4-1.4-7.1-3.2-3-1.7-9.3-5.3-13.9-7.9-4.6-2.6-17.4-9.8-28.3-16-10.9-6.2-28.1-16-38.2-21.8-10.1-5.8-27.3-15.9-38.2-22.3-11-6.5-30-18.3-42.3-26.3-12.3-7.9-23.1-15-23.9-15.6-1.6-1.2-1.6-1.2 1.5-7.5 1.7-3.4 6.5-11.2 10.5-17.2 4.1-6 11.6-16.5 16.6-23.5 5.1-6.9 12.8-17.2 17.2-22.9 4.4-5.7 11.6-14.8 16.1-20.2 4.4-5.5 13.5-16.3 20.2-24.1 6.8-7.8 16.7-19.2 22.2-25.2 5.4-6.1 25.2-26.5 44-45.2 18.7-18.7 40.1-39.5 47.4-46.2 7.4-6.6 17.9-15.9 23.3-20.6 5.5-4.7 14.4-12.1 19.9-16.5 5.5-4.4 13.7-11 18.3-14.6 4.7-3.6 14.6-11 22.2-16.4 7.6-5.5 20-14.3 27.5-19.5 7.6-5.3 18.4-12.6 24.1-16.3 5.7-3.7 14.6-9.5 19.9-12.9 5.2-3.4 13.3-8.4 17.9-11.2 4.7-2.8 12.2-7.2 16.8-9.7 4.7-2.6 14.6-8 22.2-12.1 7.6-4.1 23.2-12.2 34.8-18 11.5-5.7 26.9-13.1 34-16.4 7.1-3.2 18-8.1 24.1-10.7 6.1-2.6 15-6.4 19.8-8.4 4.9-2 18-7 29.1-11.2 11.1-4.2 27-10 35.2-12.8 8.1-2.9 22.1-7.5 30.9-10.2 8.8-2.8 23.1-7.1 31.7-9.6 8.6-2.5 23.1-6.5 32.1-8.9 9.1-2.3 24-5.9 33.3-8.1 9.2-2.1 23.3-5 31.3-6.4 8-1.4 22.4-3.9 32.1-5.4 9.7-1.5 22.6-3.5 28.7-4.3 6.1-0.8 16.9-2.2 24-3 7.2-0.9 19.7-1.8 27.9-2.2 8.2-0.3 35.4-0.6 60.4-0.7zm1059 625.9c0.4 0 2.5 1.7 4.7 4 2.1 2.2 5.1 6 6.6 8.6 1.4 2.5 4.4 8 6.5 12.2 2.1 4.2 5.8 12.1 8.2 17.6 2.4 5.4 7 16.4 10.3 24.4 3.3 8 8.3 20.6 11.1 27.9 2.8 7.4 7.5 20.1 10.4 28.3 3 8.2 7.5 21.3 10.2 29.1 2.7 7.7 6.4 19.1 8.3 25.2 1.9 6.1 5.4 17.9 7.8 26.3 2.4 8.5 6.5 24.3 9.2 35.2 2.6 10.9 6.4 26.8 8.3 35.2 1.9 8.4 4.6 22 6.1 30.2 1.5 8.2 4.1 23.5 5.7 34 1.7 10.5 3.8 24.7 4.6 31.7 0.9 6.9 2.3 19.6 3.1 28.3 0.9 8.6 2.1 22.3 2.7 30.5 0.7 8.2 1.7 27.5 2.3 42.8 0.8 21.9 0.9 35.6 0.4 63.5-0.4 19.5-1.1 42.6-1.5 51.2-0.4 8.6-1.1 21.5-1.6 28.6-0.4 7.2-1.5 19.6-2.3 27.6-0.9 7.9-2.4 20.7-3.5 28.2-1 7.6-2.5 16.7-3.3 20.3-0.8 3.6-2.1 8-3 9.7-0.9 1.8-3.1 4.5-4.9 5.9-1.8 1.4-10.6 7.3-19.7 13.1-9 5.7-19.3 12.4-22.9 14.7-3.6 2.3-14.1 8.9-23.3 14.6-9.3 5.6-33.5 20.3-53.9 32.6-20.4 12.2-50 29.9-65.7 39.3-15.8 9.4-42.8 25.5-60 35.8-17.3 10.3-38.4 23-47 28.3-8.6 5.2-18.2 11.3-21.3 13.4-3.1 2.2-6 4.4-6.5 5-0.7 0.8-0.5 1.3 1 2.4 1.1 0.8 7.8 5.4 14.9 10.2 7.2 4.8 20.4 13.3 29.5 18.8 9 5.6 33.9 20.4 55.4 32.9 21.4 12.5 50.3 29.3 64.2 37.4 13.8 8.1 29 17.1 33.6 20 4.6 2.8 10.4 6.7 12.8 8.7 2.4 1.9 4.4 4 4.4 4.8 0 0.7-1.8 5.3-4 10.1-2.3 4.8-6.8 13.6-10.1 19.5-3.3 5.9-9.3 16.2-13.3 22.9-4 6.7-13.3 21.7-20.6 33.3-7.4 11.5-18.1 28-23.8 36.6-5.8 8.7-14 20.7-18.4 26.8-4.4 6.1-11.2 15.6-15.2 21-4 5.5-11.4 15.1-16.4 21.4-5 6.3-15.2 18.5-22.6 27.2-7.4 8.6-22.2 24.9-33 36.3-10.8 11.3-29 29.9-40.5 41.2-11.5 11.4-26.1 25.5-32.4 31.4-6.3 5.9-16.2 14.8-21.9 19.9-5.7 5-13.4 11.7-17.2 14.9-3.7 3.2-14 11.6-22.8 18.6-8.9 7.1-21.2 16.8-27.5 21.5-6.3 4.7-19.1 13.9-28.3 20.3-9.3 6.5-19.8 13.7-23.3 16.1-3.6 2.3-10 6.5-14.2 9.2-4.2 2.7-13.8 8.8-21.4 13.6-7.5 4.8-17.5 10.9-22.1 13.6-4.7 2.7-12.9 7.1-18.4 9.8-5.4 2.6-11.5 5.3-13.5 5.8-2.6 0.7-4 0.8-5.3 0.2-1.5-0.8-1.9-1.7-2.4-5.8-0.3-2.7-0.9-27.6-1.3-55.3-0.4-27.8-0.9-85.9-1.7-207.9l17.8-13.9c9.8-7.6 22.5-17.8 28.2-22.5 5.7-4.7 16.2-13.8 23.3-20.2 7.2-6.3 23-21.3 35.1-33.3 12.2-11.9 25.9-26 30.5-31.3 4.6-5.2 10.9-12.9 14-17.1 3.1-4.3 5.6-7.7 5.5-7.8-0.2-0.1-8.3-5.1-18.2-11.1-9.9-6.1-26.9-16.4-37.8-23-11-6.5-26.1-15.4-33.7-19.8-7.5-4.4-22.8-13.4-34-19.9-11.1-6.5-29.2-17-40.1-23.3-10.9-6.3-31.9-18.4-46.6-27-14.7-8.5-32.8-19-40.2-23.3-7.3-4.3-20-11.7-28.2-16.4-8.2-4.8-26.3-15.2-40.2-23.2-13.8-8-30.2-17.2-36.3-20.6-6.1-3.3-13.8-7.3-17.2-8.8-3.3-1.5-7.3-2.9-11.4-3.4l-0.6 6c-0.3 3.3-0.9 37.5-1.3 75.9-0.5 38.5-1.1 132.1-1.6 207.9-0.4 75.9-0.9 207.1-1.7 445.3l-31.1 6c-17 3.3-39.1 7.5-49 9.3-9.8 1.9-23.2 4.3-29.8 5.3-6.5 1-18 2.5-25.6 3.4-7.5 0.8-17.3 1.8-21.8 2.3-4.4 0.4-11.8 1.1-16.4 1.6-4.6 0.4-15.3 1.2-23.7 1.8-8.4 0.7-19.9 1.4-36.1 2.4l-0.5-40.9c-0.3-22.5-0.8-255.2-1.2-517.1-0.4-261.9-0.8-492.6-0.8-549.2l33.1-19.7c18.2-10.9 38-22.7 44.1-26.3 6.1-3.5 23.1-13.5 37.9-22 14.7-8.5 32.7-19 40.1-23.2 7.3-4.2 21.6-12.2 31.7-17.8 10.1-5.7 23.2-12.7 29-15.5 5.9-2.9 11.7-5.5 12.8-5.7 1.3-0.3 2.6 0 3.1 0.5 0.6 0.5 1.2 2.7 1.5 4.8 0.3 2.1 0.9 8.1 1.3 13.4 0.5 5.2 1.2 19.8 1.6 32.4 0.4 12.7 0.8 48.3 0.8 79.1 0 30.9 0.3 57.7 1.1 62.9l68 38.9c37.4 21.4 79.2 45.2 92.9 53 13.7 7.7 32.9 18.4 42.8 23.9 9.9 5.4 23.1 12.7 29.4 16.1 6.3 3.3 15.4 8 20.3 10.3 4.8 2.3 10.1 4.6 11.8 5.1 1.7 0.6 4.5 0.8 6.1 0.6 1.8-0.2 7.2-2.7 13-5.9 5.5-3 12.5-7 15.7-8.8 3.2-1.8 12.4-7 20.6-11.6 8.2-4.7 22.2-12.5 31-17.5 8.8-4.9 24-13.5 33.6-19.1 9.7-5.5 22.9-13.2 29.4-16.9 6.6-3.8 21.7-12.7 33.7-19.7 12-7.1 38.4-22.4 58.8-34.1 20.4-11.6 52.4-29.7 71.1-40.2 18.7-10.5 35.5-20 40.6-22.8l-0.4-7.3c-0.3-4-1-17.7-1.6-30.5-0.6-12.9-1.8-35.1-2.7-49.3-0.8-14.3-2.2-35.1-3.1-46.3-0.8-11.1-2.2-27.3-3-35.9-0.9-8.6-2.1-19.1-2.7-23.3-0.6-4.2-2-10.9-3-14.9-1-4-2.4-8.6-3-10.2-0.7-1.5-1.9-3.2-2.7-3.6-1.1-0.5-2.6-0.5-4.8 0.1-1.8 0.4-6.4 2.4-10.1 4.4-3.8 2-11.2 6.1-16.5 9.1-5.2 2.9-15.6 8.8-22.9 13-7.4 4.1-25.6 14.6-40.5 23.2-14.9 8.6-43.7 25.2-63.8 36.9-20.2 11.7-50.1 29.1-66.5 38.7-16.4 9.5-37.1 21.4-45.9 26.5-8.8 5-20.7 11.7-26.4 14.9-5.6 3.2-14.8 8.2-20.2 11.1-5.5 2.9-14.8 7.6-20.7 10.4-5.8 2.9-12.3 5.6-14.4 6.1-3.6 0.9-3.7 0.9-5.7-1.4-1.6-1.7-2.2-3.4-2.6-6.9-0.3-2.5-0.9-10.6-1.3-17.9-0.4-7.4-1.2-28.9-1.7-47.8-0.6-20.8-0.9-63.5-0.8-108.2 0-40.5 0.4-74.9 0.7-76.3 0.6-2.5 3.6-4.3 86.2-51.9 47.1-27.1 91.1-52.4 97.9-56.3 6.7-3.9 22.5-13 35.1-20.3 12.6-7.2 28.5-16.3 35.2-20.2 6.7-3.9 22.4-12.9 34.8-20.1 12.4-7.1 32.8-18.9 45.4-26.2 12.6-7.2 34.1-19.7 47.8-27.7 13.7-8 33.1-19.4 43.2-25.4 10.1-6 23-13.5 28.6-16.7 5.7-3.2 15.9-8.7 22.6-12.3 6.7-3.5 12.6-6.5 13-6.5zm-2038.6 0.7c0.3 0 1.7 0.6 3 1.3 1.4 0.6 8 4.3 14.7 8.1 6.8 3.9 27.2 15.6 45.5 26.1 18.3 10.4 40.3 23 48.9 28 8.6 4.9 22.6 12.9 31 17.7 8.4 4.8 23.9 13.7 34.4 19.7 10.5 6 28.7 16.4 40.5 23.1 11.8 6.8 38.4 22.1 59.2 34.1 20.8 12 59.7 34.4 86.4 49.8 26.7 15.5 71.1 41.1 98.6 56.9 27.5 15.9 60 34.7 72.2 41.7 12.2 7 49.7 28.7 83.3 48.2 33.7 19.4 70.8 40.9 82.6 47.7 11.7 6.9 32.2 18.7 45.4 26.4 13.3 7.7 33.4 19.4 44.8 26 11.3 6.6 30.6 17.8 42.8 25 12.2 7.1 29.7 17.5 38.9 22.9 9.3 5.5 27.2 16 39.8 23.5 12.6 7.5 27.5 16.2 43.1 25.3v442.1c0 243.2-0.3 487.8-0.7 543.5-0.4 64.5-1 103.2-1.5 106.6-0.4 2.9-1.5 7.7-2.3 10.5-1.3 4.5-1.9 5.4-4.4 6.8-2.5 1.4-3.7 1.6-9.8 1.2-3.7-0.2-11.1-0.9-16.4-1.6-5.2-0.6-14.7-1.7-21-2.4-6.3-0.7-19.9-2.4-30.2-3.9-10.3-1.5-27.2-4.1-37.4-5.7-10.3-1.7-30-5.3-43.6-8.1-13.7-2.7-35-7.5-47.4-10.6-12.4-3.1-29.8-7.7-38.6-10.2-8.8-2.5-25.2-7.5-36.3-11.2-11.1-3.7-28-9.5-37.5-13-9.4-3.5-23.9-9.1-32.1-12.4-8.2-3.4-18.5-7.7-22.9-9.6-4.4-1.8-13.9-6-21-9.1-7.2-3.2-19.4-8.8-27.1-12.4-7.8-3.6-23.5-11.4-34.8-17.2-11.4-5.8-27.8-14.5-36.5-19.4-8.7-4.9-23.5-13.5-32.9-19.1-9.3-5.6-23.3-14.4-31.1-19.6-7.8-5.2-19.7-13.4-26.4-18.3-6.7-4.8-18.8-13.6-26.7-19.5-8-5.9-20.8-15.7-28.3-21.8-7.6-6-20.3-16.5-28.3-23.3-8-6.7-18.3-15.7-22.9-19.8-4.7-4.2-18.4-17.1-30.5-28.7-12.1-11.6-27.6-27-34.4-34.1-6.8-7.1-18.4-19.5-25.7-27.5-7.4-8-16.8-18.5-21.1-23.3-4.2-4.9-11.4-13.4-16-19.1-4.6-5.6-12.9-16.1-18.5-23.3-5.6-7.2-15.4-20.4-21.9-29.5-6.5-9-16.7-23.8-22.8-32.8-6.1-9.1-14.9-22.5-19.5-29.8-4.6-7.4-12.7-20.6-17.9-29.5-5.3-8.8-13.5-23.2-18.2-32.1-4.8-8.8-13.8-26.3-20.1-39-6.3-12.6-14.3-29.2-17.8-37-3.5-7.8-8.8-20-11.8-27.2-3.1-7.1-8.1-19.3-11.1-27.1-3.1-7.8-8.3-21.7-11.7-30.9-3.3-9.3-7.8-22-9.9-28.3-2.1-6.3-6.2-19.7-9-29.8-2.8-10.1-7.4-27.7-10.3-39-2.9-11.4-7.2-29.1-9.5-39.4-2.3-10.3-5.4-24.5-6.8-31.7-1.5-7.1-3.7-19-5-26.4-1.3-7.3-3.2-19.5-4.2-27.1-1.1-7.6-2.3-16.7-2.7-20.2-0.5-3.6-1.3-14.8-2-24.9-0.6-10.1-1.6-29.5-2.2-43.2-0.7-13.6-1.5-35.3-1.9-48.1-0.5-12.8-1-26.8-1.3-31-0.2-4.2 0-20 0.4-35.1 0.5-15.2 1.2-33.2 1.6-40.2 0.4-6.9 1.3-18.2 1.9-25.2 0.7-6.9 1.9-19 2.7-26.7 0.9-7.8 2.4-20.4 3.5-27.9 1-7.6 3.4-22.9 5.3-34 1.8-11.2 4.6-26.7 6-34.4 1.4-7.8 3.9-19.9 5.4-26.8 1.6-6.9 4.7-20 6.9-29 2.3-9.1 6.4-24.2 9.2-33.7 2.8-9.4 7.8-25.8 11.2-36.3 3.4-10.5 8.8-26.6 12.1-35.9 3.3-9.2 8.6-23.9 11.9-32.5 3.2-8.6 9.1-23.2 13-32.5 3.9-9.2 9.3-21.6 11.9-27.5 2.7-5.9 6.9-14.1 9.2-18.3 2.4-4.2 5.6-9.4 7.2-11.6 1.6-2.2 3.8-4.5 4.8-5.1 1.1-0.7 2.3-1.2 2.6-1.3zm120.2 360.4c-1.5 8-3.6 20.7-4.6 28.3-1 7.5-2.4 19.6-3 26.7-0.7 7.2-1.6 19.9-2 28.3-0.5 8.4-1 33.2-1.3 55-0.3 24.4-0.1 50.5 0.5 67.7 0.5 15.3 1.4 34.2 2 42 0.6 7.8 1.7 19 2.3 24.9 0.6 5.8 2 16.5 3.1 23.6 1 7.2 3.6 21.1 5.6 31 2.1 9.9 4.8 22.8 6.1 28.7 1.3 5.9 3.8 16.2 5.5 22.9 1.7 6.7 5.3 20 8 29.4 2.8 9.5 6.9 22.9 9.2 29.8 2.4 7 6.4 18.7 9.1 26 2.6 7.4 6.8 18.7 9.4 25.2 2.5 6.6 6.9 17.4 9.9 24.1 2.9 6.7 8.3 18.8 12 26.8 3.7 8 8.8 18.6 11.3 23.7 2.5 5 7.2 13.9 10.3 19.8 3.2 5.9 9.2 16.8 13.4 24.1 4.2 7.4 11.6 19.7 16.4 27.5 4.9 7.8 13.4 21 19 29.4 5.5 8.5 15 22 21 30.2 5.9 8.2 13.5 18.4 16.8 22.6 3.3 4.2 10.9 13.3 16.8 20.2 6 7 14.8 17.1 19.7 22.6 4.9 5.5 20.9 22 35.6 36.7 14.8 14.7 34.1 33.2 42.9 41 8.8 7.9 21.4 18.8 27.9 24.3 6.5 5.5 19.7 16 29.4 23.3 9.7 7.2 21.7 16.1 26.8 19.7 5 3.5 15.3 10.6 22.9 15.6 7.6 5.1 17.5 11.6 22.2 14.4 4.6 2.9 10.8 6.6 13.7 8.3 3 1.6 10.3 5.7 16.4 9.1 6.1 3.4 18.3 9.8 27.2 14.4 8.8 4.5 22.7 11.4 30.9 15.2 8.2 3.9 20.1 9.3 26.4 12 6.3 2.7 17.1 7.2 24.1 9.9 6.9 2.8 17.1 6.5 22.5 8.4 5.5 1.8 10.8 3.3 11.9 3.3l1.9 0.1c1-44.8 1.6-76.3 2-99 0.4-22.7 0.9-164.5 1.1-315.1l0.3-273.8c-32.3-19.1-49-29.1-58.1-34.4-9-5.4-20.5-12.2-25.6-15.1-5-2.9-16.4-9.5-25.2-14.7-8.8-5.2-23.8-14-33.2-19.5-9.5-5.6-32-18.6-50.1-29.1-18.1-10.4-38.4-22.1-45.1-26-6.7-3.8-21-12.1-31.7-18.3-10.7-6.2-22.1-12.7-25.2-14.5-3.2-1.8-16.4-9.4-29.5-16.9-13-7.5-28.8-16.6-35.1-20.2-6.3-3.7-31.6-18.2-56.2-32.3-24.6-14-53-30.3-63.1-36.1-10-5.8-34.1-19.7-53.5-30.9-19.3-11.2-39.2-22.7-44.3-25.4-5-2.8-12.2-6.5-15.9-8.2-3.6-1.7-6.8-3.1-7-3.1-0.3 0-0.6 0.4-0.8 0.9-0.2 0.5-1.5 7.5-3 15.5z"/></svg>