<svg version="1.2" xmlns="http://www.w3.org/2000/svg" viewBox="0 0 614 614" width="1000" height="1000"><path fill="currentColor" class="a" d="m442 258.5q0.9 7.1 1.6 14.2 0.6 7.1 0.9 14.2 0.4 7.2 0.4 14.3c0.6 114.1-59.6 185.6-93.1 216.5l-0.7 0.7q-2.4 2.2-4.8 4.3-2.5 2.2-5 4.2-2.5 2.1-5.1 4.1-2.6 1.9-5.2 3.8l-1 0.7q-2.2 9.7-4.1 19.5-1.9 9.7-3.5 19.6-1.6 9.8-3 19.7-1.3 9.8-2.4 19.7h-12.3c-3.5-37.3-8.4-72.6-8.5-73.3v0.1l-1.8-1.3c-15.7-11.5-132.2-101.6-125-252.8 7.8-162.2 102.8-241.9 121.3-256.4 12-12.8 12.4-17.7 13.4-30.3 0.3 0.6 0.5 1.3 0.6 1.7 0 0 9.2 22.5 18.2 35.1 8.2 18 84.6 64.9 117 207.6q1.2 7.1 2.1 14.1zm-119.1 257.1c0 0-7.1-273.6-12.5-273.6-7 0-7 212.1-7 212.1 0 16.5 9.8 60.4 19.5 61.5z"/></svg>