<svg version="1.2" xmlns="http://www.w3.org/2000/svg" viewBox="0 0 588 588" width="1000" height="1000"><path fill="currentColor" d="m377.1 2.2c-2.5 1.3-5.4 3.6-6.5 5.1-1.2 1.6-2.4 5.2-2.8 8-0.3 2.9-0.7 57.3-0.7 121l-0.1 115.7c43 65.9 55.7 85 56 85 0.3 0 0.5-73 0.5-162.3 0-152.6-0.1-162.4-1.8-165.4-0.9-1.8-3.4-4.5-5.4-6-3.6-2.7-4-2.8-19.2-3.1-14.7-0.3-15.9-0.2-20 2zm-282.6 12.2c-1.6 0.7-4.7 3.1-6.8 5.2l-3.8 3.9 0.6 363.2c4 5.3 6.8 7.6 8.8 8.6 3 1.4 6.4 1.7 17.4 1.7 7.6 0 15.4-0.4 17.3-1 1.9-0.5 4.7-2.2 6.2-3.7 1.4-1.5 3.1-4.6 3.8-6.8 0.9-2.9 1.4-38.7 1.9-135 0.5-72 1.1-131.6 1.5-132.2 0.4-0.9 2 0.6 4.4 4 2.1 2.8 23.8 34.7 48.2 70.7 24.4 36 58.5 86.4 75.9 112 17.3 25.6 38.2 56.2 46.5 68 8.2 11.8 20.6 29.4 27.6 39 6.9 9.6 37.1 50.6 67.1 91 30 40.4 56.2 76 58.4 79 2.1 3 4 5.6 4.2 5.8 0.2 0.1 4-1.9 8.5-4.4 4.6-2.6 11.6-6.6 15.5-9 4-2.4 7.3-4.6 7.3-4.9 0-0.3-7.8-12.1-17.4-26.2-9.5-14.2-39.7-59.8-67.1-101.3-27.4-41.5-67.2-101.8-88.5-134-21.2-32.2-55.7-84.4-76.5-116-20.9-31.6-55.5-83.8-77-115.9-21.4-32.2-40.3-59.4-41.8-60.5-2.6-1.9-4.5-2.1-21-2.3-13.7-0.2-18.9 0.1-21.2 1.1z"/></svg>