<svg version="1.2" xmlns="http://www.w3.org/2000/svg" viewBox="0 0 3680 3680" width="2000" height="2000"><path fill="currentColor" class="a" d="m1838.3 0.1c16.2-0.1 25.6 0.4 37 1.9 8.3 1 19.7 2.9 25.2 4 5.5 1.1 15.6 3.6 22.5 5.6 6.9 2 17.2 5.4 23 7.7 5.8 2.3 16.3 7.1 23.5 10.7 7.2 3.7 314.3 180.7 682.5 393.4 368.2 212.8 673.3 389.1 678 391.9 4.7 2.7 12.3 7.5 17 10.7 4.7 3.2 12.3 8.7 17 12.4 4.7 3.7 13 10.9 18.4 15.9 5.5 5.1 14.2 14.2 19.4 20.2 5.1 6.1 12.4 15.3 16.2 20.5 3.7 5.2 9.4 13.8 12.5 19 3.2 5.2 7.9 13.8 10.5 19 2.6 5.2 6.6 14 8.9 19.5 2.3 5.5 5.9 15.4 8 22 2.1 6.6 5 17.2 6.5 23.5 1.4 6.3 3.2 16.2 4.1 22 0.8 5.8 1.9 15.9 2.5 22.5 0.6 7.9 1 278 1 796 0 535.7-0.3 788.3-1 797.5-0.6 7.4-2 19.1-3.1 26-1.1 6.9-3.1 17.2-4.6 23-1.4 5.8-4.1 15.2-6 21-1.9 5.8-5 14.2-6.9 18.8-1.9 4.5-6.1 13.6-9.4 20.2-3.3 6.6-8.6 16.2-11.7 21.3-3.1 5-8.1 12.6-11.1 16.7-2.9 4.1-8.9 11.8-13.2 17-4.3 5.2-13.4 14.9-20.2 21.5-6.7 6.6-15.7 14.7-19.8 18-4.1 3.3-11.8 9-17 12.6-5.2 3.7-22.3 14.1-38 23.1-15.7 9.1-67.9 39.2-116 67-48.1 27.8-126.9 73.2-175 101-48.1 27.8-301.9 174.2-564 325.5-262.1 151.2-479.4 276.5-483 278.5-3.6 2-12.1 6-19 9.1-6.9 3-16.8 6.9-22 8.6-5.2 1.8-15.3 4.8-22.5 6.6-7.2 1.9-19.3 4.3-27 5.6-9.9 1.5-20.4 2.3-36 2.6-13.7 0.3-26.1 0.1-33-0.7-6-0.6-16.8-2.2-24-3.5-7.2-1.3-19.5-4.3-27.5-6.6-8-2.3-20.6-6.6-28-9.6-7.4-3-18.4-8-24.5-11.2-6-3.2-113.4-66.4-238.5-140.4-125.1-74-231.9-137.4-237.3-140.8-5.4-3.5-12.4-8.9-15.6-11.9-3.2-3-6.7-7.4-7.9-9.7-1.2-2.4-2.2-5.8-2.2-7.5 0-1.8 0.9-4.8 2-6.5 1.1-1.8 4.1-4.6 6.8-6.3 2.6-1.6 9.7-4.7 15.7-6.9 6.1-2.2 22.5-8.1 36.5-13.1 14-5 32.9-12 42-15.7 9.1-3.6 23.7-9.9 32.5-13.9 8.8-4.1 24.8-12.1 35.5-17.8 10.7-5.7 29-15.8 40.5-22.3 11.6-6.5 22.6-12.4 24.5-13.1 1.9-0.7 6.1-1.2 9.3-1.2 3.2 0 8 0.9 11 2 2.8 1.1 26.4 14.5 52.2 29.8 25.8 15.3 104.6 62 175 103.7 70.4 41.7 130 76.7 132.5 77.8 2.5 1.1 7.1 2.3 10.3 2.8 3.5 0.6 8.2 0.5 12.2-0.1 3.6-0.6 8.4-2 10.8-3.1 2.3-1.2 128-73.6 279.2-160.9 151.3-87.3 331.9-191.6 401.5-231.7 69.6-40.2 180.5-104.2 246.5-142.3 66-38.1 156.4-90.3 201-116 44.6-25.7 113.4-65.4 153-88.3 39.6-22.8 74-43.2 76.4-45.4 2.4-2.1 5.8-5.8 7.4-8.3 1.7-2.5 4-7 7.2-15.5l0.3-782c0.2-559.7-0.1-784-0.8-789-0.6-3.8-2.3-9.5-3.7-12.5-1.5-3.2-5.2-8.1-8.7-11.5-5.5-5.4-68.7-42.1-683.1-396.4-372.4-214.8-679-391.1-681.5-391.8-2.5-0.7-7.9-1.3-12-1.3-4.1 0-9.7 0.7-12.5 1.5-2.8 0.8-297.1 170.3-681.5 392.4-372.1 215-678.5 392.6-680.9 394.7-2.5 2.2-5.8 5.9-7.3 8.4-1.6 2.5-3.8 7.4-4.9 11-1.9 6.4-1.9 12.9-1.4 1578.6l3.7 7.5c2 4 5.4 9.1 7.5 11.1 2.1 2 10.6 7.6 18.8 12.4 8.3 4.7 92.4 53.3 187 107.9 94.6 54.6 174.3 100.4 177 101.8 2.8 1.4 11.3 5.2 19 8.5 7.7 3.3 19.8 8 27 10.5 7.2 2.4 19.5 6.1 27.5 8.1 8 2 20.8 4.6 28.5 5.8 10.7 1.6 18.8 2.2 34.5 2.2 12.1 0.1 24.4-0.5 30-1.3 5.2-0.7 15.3-2.8 22.5-4.6 7.2-1.8 16.5-4.7 20.8-6.4 4.2-1.7 11.2-4.8 15.5-7 4.2-2.1 12.7-7.2 18.7-11.2 6.2-4.2 15.5-11.7 21.4-17.4 5.7-5.5 13.2-13.6 16.6-18 3.4-4.4 7.8-10.6 9.8-13.7 2.1-3.2 5.9-10.2 8.6-15.5 2.7-5.4 6.3-13.9 8-18.8 1.8-4.9 4.1-12.4 5.1-16.5 1.1-4.1 2.7-11.8 3.7-17 1.7-9 1.8-47 2.8-1573.5l2.4-5c1.3-2.7 4.7-7.5 7.6-10.5 3.3-3.5 7.6-6.6 18-11.5h192l6.5 3.1c3.6 1.7 8.4 5 10.8 7.2 2.3 2.3 5.3 6.1 6.7 8.5 1.3 2.3 3.1 6.9 4 10.2 1.4 5.4 1.5 84.9 1.2 795.5-0.2 612.6-0.6 792.3-1.5 802-0.7 6.9-2.2 19.9-3.3 29-1.1 9.1-3.1 22.6-4.5 30-1.3 7.4-4 20-6 28-1.9 8-5.1 19.9-7.1 26.5-1.9 6.6-5.5 17.2-7.8 23.5-2.3 6.3-7.1 17.8-10.5 25.5-3.4 7.7-8.9 18.9-12.2 25-3.3 6.1-8.8 15.4-12.2 20.8-3.3 5.4-9.9 14.9-14.5 21-4.6 6.2-12 15.5-16.6 20.7-4.6 5.2-12.5 13.6-17.6 18.5-5.2 5-13.4 12.4-18.4 16.6-4.9 4.1-13.5 10.6-19 14.5-5.5 3.9-15.4 10.4-22 14.3-6.6 4-17.8 10.1-25 13.6-7.2 3.5-18.6 8.6-25.5 11.3-6.9 2.7-17.4 6.6-23.5 8.5-6 1.9-15.3 4.7-20.5 6.1-5.2 1.4-14.8 3.7-21.2 5.1-6.5 1.4-17.3 3.4-24 4.4-6.8 1.1-18.7 2.7-26.5 3.5-7.9 0.9-25.2 2.1-38.5 2.6-13.4 0.6-34 0.8-45.8 0.5-11.8-0.3-27.8-1-35.5-1.6-7.7-0.5-18.9-1.6-25-2.5-6-0.8-15.7-2.4-21.5-3.5-5.8-1.1-16.6-3.6-24-5.4-7.4-1.9-20-5.4-28-7.9-8-2.4-21.2-6.9-29.5-9.9-8.2-3-19.5-7.3-25-9.5-5.5-2.2-19-7.9-30-12.7-11-4.8-30.6-13.8-43.5-19.9-19.6-9.4-53.6-28.6-203.5-115-99-57.1-184.5-106.8-190-110.4-5.5-3.7-14.5-10.2-20-14.6-5.5-4.4-15.7-13.6-22.6-20.5-6.9-6.9-16.3-17.3-20.9-23.1-4.6-5.8-11.8-15.7-15.9-22-4.2-6.4-10.8-17.8-14.7-25.5-4-7.7-9.2-19.2-11.7-25.5-2.5-6.3-6.1-16.7-8-23-2-6.3-4.7-16.9-6.1-23.5-1.4-6.6-3.3-17.4-4.3-24-1.6-11.4-1.7-53.7-2.1-801.5-0.2-578.6 0-793.9 0.8-806 0.6-9.1 2-21.9 3.1-28.5 1.1-6.6 3.4-17.4 5-24 1.7-6.6 4.7-16.7 6.6-22.5 2-5.8 6-16.1 9.1-23 3-6.9 7.9-17 11-22.5 3-5.5 8.7-14.9 12.7-21 4.1-6 11.2-15.7 15.8-21.5 4.6-5.8 14.9-16.8 22.8-24.5 7.9-7.7 19.6-17.9 25.9-22.6 6.3-4.7 14.2-10.3 17.5-12.4 3.3-2.1 309.8-179.3 681-393.8 371.3-214.6 680.4-392.9 687-396.3 6.6-3.5 17.2-8.4 23.5-10.9 6.3-2.6 17.3-6.4 24.5-8.5 7.2-2.1 18-4.8 24-6 6.1-1.2 17.1-3 24.5-4 9.1-1.2 20.5-1.8 35.3-1.9zm383.2 1114.6c15.4 0.2 39 0.8 52.5 1.4 13.5 0.5 33.7 1.6 45 2.5 11.3 0.8 27 2.1 35 3 8 0.8 23.3 2.6 34 4 10.7 1.3 26.5 3.6 35 5 8.5 1.4 24.3 4.3 35 6.4 10.7 2.2 26.9 5.8 36 8 9.1 2.2 21.9 5.7 28.5 7.6 6.6 1.9 19 5.8 27.5 8.5 8.5 2.8 24.1 8.5 34.5 12.6 10.4 4.1 29.3 12.5 42 18.8 12.7 6.2 27.9 14.4 34 18 6.1 3.6 16.6 10.4 23.5 15 6.9 4.6 17.3 12.1 23.1 16.7 5.9 4.6 15.1 12.2 20.5 16.9 5.5 4.8 15.7 14.7 22.9 22 7.2 7.4 17.9 19.5 23.8 26.9 6 7.4 15.5 20.5 21.2 29 5.7 8.5 13.1 20.5 16.5 26.5 3.3 6.1 8.6 16.2 11.6 22.5 3.1 6.3 8 17.1 10.9 24 2.9 6.9 7.5 19 10.2 27 2.8 8 6.9 21 9.2 29 2.2 8 5.6 21.5 7.5 30 1.9 8.5 4.8 23.8 6.5 34 1.7 10.2 4 26.6 5.1 36.5 1.1 9.9 2 20.3 2 23 0 2.8-0.6 7.3-1.4 10-0.7 2.8-2.3 6.9-3.4 9.3-1.2 2.3-4.2 6.2-6.7 8.7-2.5 2.5-7.5 6-18 11h-194l-6-2.8c-3.3-1.6-7.8-4.3-9.9-6-2.2-1.8-5.6-5.7-7.6-8.7-2.6-4-4.4-8.6-6.4-17-1.6-6.3-4.3-16.9-6.2-23.5-1.8-6.6-5.3-17.8-7.8-25-2.4-7.1-6.1-17-8.1-22-2.1-4.9-6.8-15.1-10.6-22.5-3.7-7.4-9.9-18.2-13.7-24-3.7-5.8-10.5-15-14.9-20.5-4.4-5.5-12.3-14.1-17.4-19-5.2-5-13.7-12.4-18.9-16.4-5.2-4-13.4-9.7-18.2-12.7-4.9-3-14.5-8.3-21.5-11.8-7.1-3.5-16.9-7.9-21.8-9.9-4.9-1.9-13.9-5.1-20-7.1-6.1-2-16.2-5-22.5-6.7-6.3-1.6-17.8-4.3-25.5-5.9-7.7-1.6-21.7-4-31-5.4-9.3-1.4-23.7-3.2-32-4-8.2-0.9-20.4-2-27-2.6-6.6-0.5-23.5-1.4-37.5-2.1-16-0.7-44.6-0.9-77-0.6-28.3 0.3-57.6 1-65 1.6-7.4 0.6-20.2 1.8-28.5 2.7-8.2 0.8-21.3 2.4-29 3.5-7.7 1.1-22.8 3.7-33.5 5.9-10.7 2.2-25.7 5.8-33.2 8-7.6 2.2-19.5 6.1-26.5 8.6-7.1 2.5-18.6 7.4-25.8 10.9-7.2 3.5-18.6 10.1-25.5 14.6-9.6 6.3-15.4 11.2-25 20.8-7.3 7.3-14.8 16-17.8 20.6-2.9 4.4-7.1 11.6-9.2 16-2.1 4.4-5.2 12.1-6.9 17-1.6 5-3.6 12.4-4.5 16.5-0.8 4.1-2 11.3-2.5 16-0.6 4.7-1.1 16.4-1.1 26 0 9.6 0.5 20.7 1 24.5 0.5 3.9 1.7 10.2 2.6 14 0.9 3.9 3.2 10.4 5.1 14.5 1.9 4.1 5.4 10.2 7.7 13.5 2.4 3.3 7.2 8.7 10.7 11.9 3.5 3.3 10 8.3 14.4 11.2 4.4 2.8 12.1 7.2 17 9.7 4.9 2.4 14.2 6.5 20.5 9 6.3 2.5 18.9 6.8 28 9.7 9.1 2.8 26.4 7.5 38.5 10.5 12.1 3 31 7.2 42 9.5 11 2.3 33.5 6.5 50 9.5 16.5 2.9 44.4 7.6 62 10.4 17.6 2.8 49.3 7.5 70.5 10.5 21.2 3.1 53.8 7.6 72.5 10.1 18.7 2.5 51.1 7 72 10 20.9 3 52.6 7.9 70.5 10.9 17.9 3 43.3 7.6 56.5 10.1 13.2 2.6 35 7.1 48.5 10.1 13.5 3 33.1 7.7 43.5 10.4 10.4 2.7 26.2 7 35 9.5 8.8 2.5 24.1 7.3 34 10.6 9.9 3.3 26.6 9.5 37 13.6 10.4 4.1 25.5 10.6 33.5 14.3 8 3.7 20.1 9.7 27 13.5 6.9 3.7 18.3 10.4 25.3 14.9 7 4.5 16.9 11.2 22 15 5.1 3.8 13 10.1 17.6 14 4.7 3.9 13 11.6 18.4 17.1 5.5 5.5 13.6 14.3 17.9 19.5 4.4 5.2 11.5 14.7 15.7 21 4.3 6.3 10.5 16.5 13.9 22.5 3.3 6.1 8.6 16.9 11.7 24 3.1 7.2 7.5 19.1 10 26.5 2.4 7.4 5.3 17.3 6.5 22 1.2 4.7 3 12.6 4 17.5 1 5 2.5 13.3 3.4 18.5 0.8 5.2 2.2 16 3.1 24 1 8.3 1.9 27.6 2.2 45 0.3 19.1 0.1 36.3-0.6 46-0.6 8.5-1.8 20.9-2.7 27.5-0.8 6.6-2.6 17.9-3.9 25-1.3 7.2-4 19.1-5.9 26.5-1.9 7.4-4.9 18-6.6 23.5-1.8 5.5-5.7 16.3-8.7 24-3.1 7.7-8.8 20.5-12.7 28.5-4 8-9.6 18.6-12.5 23.5-3 5-8.5 13.7-12.4 19.5-3.9 5.8-9.6 13.9-12.7 18-3.1 4.1-8.7 11.1-12.4 15.5-3.7 4.4-12.9 14.3-20.4 21.9-7.5 7.7-18.6 18.2-24.7 23.4-6.1 5.3-16.4 13.6-23 18.6-6.6 4.9-18.3 13.1-26 18.2-7.7 5-19.6 12.4-26.5 16.4-6.9 3.9-20.6 11.1-30.5 16-9.9 4.9-25 11.8-33.5 15.3-8.5 3.6-23.6 9.4-33.5 13-9.9 3.6-25.4 8.8-34.5 11.5-9.1 2.8-23.5 6.8-32 9.1-8.5 2.2-21.6 5.4-29 7-7.4 1.6-18 3.9-23.5 5-5.5 1.1-17.9 3.4-27.5 5-9.6 1.7-25.9 4.2-36.2 5.6-10.4 1.4-27.5 3.4-38 4.5-10.6 1-28.7 2.6-40.3 3.4-11.6 0.8-34.3 2-50.5 2.7-18.4 0.7-46.1 0.9-73.5 0.6-24.2-0.4-52.8-1.1-63.5-1.7-10.7-0.6-28.5-1.7-39.5-2.5-11-0.9-28.8-2.5-39.5-3.6-10.7-1.1-27.8-3.1-38-4.5-10.2-1.3-26.8-3.8-37-5.5-10.2-1.7-27.3-4.8-38-7-10.7-2.2-28.5-6.2-39.5-9-11-2.7-26.7-7-35-9.4-8.2-2.4-22.4-6.9-31.5-10-9.1-3.1-23.9-8.6-33-12.2-9.1-3.6-22.8-9.4-30.5-13-7.7-3.5-20.1-9.6-27.5-13.5-7.4-3.9-18.4-10-24.5-13.6-6-3.6-16.4-10.1-23-14.5-6.6-4.4-16.9-11.7-23-16.3-6-4.5-16.2-12.6-22.5-18.1-6.3-5.4-16.7-15-23-21.3-6.4-6.3-15.6-16.2-20.5-22-5-5.8-12.5-15-16.6-20.5-4.2-5.5-11-15.2-15.1-21.5-4.2-6.3-10.4-16.4-13.9-22.5-3.4-6-9.1-16.8-12.5-24-3.4-7.1-8.5-18.6-11.2-25.5-2.7-6.9-6.8-18.1-9-25-2.3-6.9-5.2-16.5-6.6-21.5-1.4-4.9-3.9-15.3-5.6-23-1.7-7.7-4.2-20.7-5.5-29-1.3-8.2-3.1-22.6-4.1-32-1.1-10.7-1.8-26-1.8-41.5-0.1-24.4-0.1-24.5 2.5-30 1.4-3 4.8-7.9 7.5-10.9 3.2-3.4 7.2-6.4 17.9-11.6h195l6.5 3.1c3.8 1.8 8.5 5.1 11.3 8 2.7 2.7 6 7.2 7.3 9.9 1.6 3.2 3.5 11 5.4 22 1.6 9.4 4 22.2 5.4 28.5 1.3 6.3 3.8 16.5 5.5 22.5 1.6 6.1 4.8 16.2 7 22.5 2.2 6.3 5.6 15.3 7.6 20 2 4.7 5.8 12.6 8.4 17.5 2.6 5 7 12.4 9.6 16.5 2.6 4.1 7.7 11.3 11.3 16 3.7 4.7 11.4 13.2 17.2 19 5.8 5.8 15 13.9 20.5 18.1 5.5 4.1 14.9 10.4 21 14.1 6.1 3.6 14.2 8.1 18 10 3.8 2 12.4 5.8 19 8.6 6.6 2.8 18.1 7.1 25.5 9.6 7.4 2.5 20.5 6.3 29 8.5 8.5 2.2 22 5.3 30 7 8 1.6 21.9 4.1 31 5.5 9.1 1.4 24.4 3.5 34 4.6 9.6 1.1 26.1 2.6 36.5 3.5 10.4 0.8 28.2 1.9 39.5 2.5 11.3 0.6 38.1 1.3 59.5 1.6 23.1 0.4 52.6 0.2 72.5-0.5 18.4-0.6 40.3-1.6 48.5-2.2 8.3-0.5 24.2-1.9 35.5-3 11.3-1.1 27.9-3.1 37-4.4 9.1-1.4 21.2-3.3 27-4.4 5.8-1.1 13.9-2.7 18-3.6 4.1-0.8 13.8-3.2 21.5-5.2 7.7-1.9 20.3-5.7 28-8.3 7.7-2.7 19.4-7.1 26-10 6.6-2.8 16.5-7.6 22-10.7 5.5-3.1 13.4-7.8 17.5-10.6 4.1-2.8 10.7-7.6 14.5-10.7 3.8-3.2 11.1-10 16-15.1 4.9-5.2 11.8-13.5 15.1-18.4 3.4-5 8-12.7 10.3-17.2 2.2-4.6 5.5-11.8 7.2-16 1.7-4.3 4.4-13 6-19.3 1.6-6.3 3.6-17.3 4.5-24.5 1.3-10.1 1.5-18.1 1.1-35.5-0.4-17.5-1-24.4-2.5-31-1.1-4.7-3.5-12.1-5.3-16.5-1.8-4.4-5.4-11.1-7.9-15-2.6-3.8-7.3-9.9-10.6-13.4-3.2-3.5-9.5-9.2-13.9-12.6-4.4-3.4-10.5-7.8-13.5-9.7-3-1.9-8.9-5.3-13-7.5-4.1-2.3-12-6.1-17.5-8.6-5.5-2.4-16.1-6.7-23.5-9.5-7.4-2.7-20.2-7-28.5-9.5-8.2-2.5-25.1-7-37.5-10.2-12.4-3.1-34.7-8-49.5-11-14.8-3-38-7.2-51.5-9.4-13.5-2.2-35.5-5.6-49-7.5-13.5-2-31.9-4.4-41-5.6-9.1-1.1-25.9-3.1-37.5-4.5-11.6-1.3-38.8-4.3-60.5-6.5-21.7-2.2-49.2-5.2-61-6.5-11.8-1.3-33.4-4-48-6-14.6-1.9-35.1-4.9-45.5-6.6-10.4-1.7-27.8-4.6-38.5-6.5-10.7-2-26-4.9-34-6.5-8-1.7-22.2-4.8-31.5-7-9.3-2.3-25.1-6.3-35-8.9-9.9-2.7-24.3-6.9-32-9.4-7.7-2.4-20.3-6.7-28-9.4-7.7-2.7-19.8-7.3-27-10.2-7.2-2.9-21.1-9.2-31-13.9-9.9-4.8-22.9-11.5-29-15-6-3.5-17.3-10.5-25-15.5-7.7-5.1-19.8-13.9-27-19.7-7.1-5.7-18.6-16-25.5-22.9-6.9-6.9-15.9-16.8-20.1-22-4.2-5.2-10.3-13.3-13.5-18-3.3-4.7-8.3-12.3-11.1-17-2.8-4.7-8.5-15.5-12.6-24-4.2-8.5-9.6-21.3-12.2-28.5-2.6-7.1-6.4-19.3-8.5-27-2-7.7-4.9-20.5-6.4-28.5-1.4-8-3.2-19.7-4-26-0.8-6.3-2-20.3-2.7-31-0.7-11.3-0.9-28.1-0.6-40 0.4-11.3 1.3-27.2 2.2-35.5 0.9-8.2 2.7-21.4 4-29.2 1.4-7.9 4.3-21.2 6.4-29.5 2.1-8.4 5.8-20.9 8.1-27.8 2.3-6.9 6.9-18.8 10.2-26.5 3.3-7.7 8.7-19.2 12-25.5 3.4-6.3 9-16.2 12.6-22 3.5-5.8 9.2-14.3 12.6-19 3.3-4.7 9.5-12.8 13.7-18 4.1-5.2 11.7-14 16.8-19.5 5.1-5.5 14.3-14.7 20.5-20.4 6.1-5.7 16.3-14.5 22.6-19.6 6.3-5 17.3-13.2 24.5-18.2 7.2-5 18.8-12.6 26-16.9 7.2-4.2 19.8-11.2 28-15.5 8.3-4.3 20.2-10.1 26.5-13 6.3-2.8 18-7.7 26-10.9 8-3.2 21-8 29-10.8 8-2.7 23.3-7.5 34-10.6 10.7-3 26-7.1 34-9 8-1.9 21.5-4.8 30-6.5 8.5-1.7 22.3-4.2 30.5-5.6 8.3-1.3 22-3.4 30.5-4.5 8.5-1.1 24.5-2.9 35.5-4 11-1.1 27.4-2.4 36.5-3.1 9.1-0.6 29.3-1.4 45-1.8 15.7-0.4 41.1-0.6 56.5-0.4z"/></svg>