<svg version="1.2" xmlns="http://www.w3.org/2000/svg" viewBox="0 0 2500 2500" width="2500" height="2500"><path fill="currentColor" d="m1206.9 500.4c-0.2 0.2-7.8 0.9-16.9 1.5-9.1 0.7-23.3 1.8-31.5 2.7-8.3 0.8-22.9 2.6-32.5 4-9.6 1.4-25.4 4-35 5.9-9.6 1.9-24.7 5.2-33.5 7.4-8.8 2.2-23.7 6.3-33 9.1-9.4 2.9-23.1 7.4-30.5 10.2-7.4 2.7-20 7.7-28 11.1-8 3.4-22.6 10.2-32.5 15.2-9.9 5.1-23.2 12.2-29.5 16-6.3 3.7-18.3 11.4-26.5 16.9-8.3 5.6-20.2 14.1-26.5 19-6.3 4.9-16 12.8-21.5 17.5-5.5 4.7-16 14.4-23.4 21.6-7.3 7.1-18.4 18.6-24.5 25.5-6.2 6.9-15.3 17.5-20.2 23.6-4.9 6.1-13.7 17.8-19.6 26-5.8 8.2-13.8 19.9-17.6 25.9-3.8 6-11.1 18.2-16.2 27-5.1 8.8-13.8 25.5-19.5 37-5.7 11.5-13.3 28-17 36.5-3.7 8.5-10.2 25-14.5 36.5-4.3 11.5-10.3 28.9-13.4 38.5-3.1 9.6-8.4 27.4-11.7 39.5-3.3 12.1-5.8 22.2-5.5 22.5 0.3 0.3 0.7 0.3 0.9 0 0.2-0.3 5.6-7.1 12-15.2 6.4-8.2 16.5-20.3 22.4-27 5.9-6.8 18.4-20 27.8-29.3 9.3-9.4 22.8-22 29.9-28 7-6.1 17.2-14.3 22.5-18.4 5.3-4 15.9-11.5 23.6-16.6 7.7-5.1 18.9-12.1 25-15.6 6-3.5 16.4-8.9 23-12 6.6-3.2 18.3-8.2 26-11.2 7.7-3 19.4-7.1 26-9.1 6.6-1.9 17.2-4.7 23.5-6.1 6.3-1.5 17.1-3.5 24-4.5 6.9-1.1 19.7-2.5 28.5-3.1 9.5-0.7 23.5-0.9 34.5-0.5 10.2 0.3 24.1 1.3 31 2.1 6.9 0.8 18.1 2.4 25 3.6 6.9 1.1 19.7 3.9 28.5 6.1 8.8 2.2 20.5 5.6 26 7.5 5.5 1.9 14.3 5.3 19.5 7.5 5.2 2.2 12.9 5.7 17 7.8 4.1 2.1 12 6.3 17.5 9.5 5.5 3.2 15.4 9.4 22 13.8 6.6 4.4 16.3 11.3 21.5 15.2 5.2 4 14 10.9 19.5 15.5 5.5 4.6 16.1 13.8 23.5 20.4 7.4 6.6 39 37.5 70.1 68.6 31.1 31.1 63.5 63 72 71 8.5 8 21.5 19.8 28.9 26.4 7.4 6.5 21.4 18.2 31.1 26 9.7 7.7 24.3 18.9 32.5 24.8 8.2 5.8 21.2 14.7 28.9 19.6 7.7 4.9 20.1 12.5 27.5 16.7 7.4 4.3 22.3 12.2 33 17.6 10.7 5.4 26.7 12.7 35.5 16.4 8.8 3.6 21.6 8.7 28.5 11.2 6.9 2.5 19.5 6.7 28 9.4 8.5 2.7 24.3 7.1 35 9.9 10.7 2.7 27.6 6.5 37.5 8.4 9.9 1.9 27.7 4.8 39.5 6.5 11.8 1.6 29.2 3.7 38.5 4.5 9.3 0.9 27.8 2.1 41 2.7 14.7 0.7 36.6 0.9 56.5 0.6 17.9-0.4 41.3-1.4 52-2.2 10.7-0.8 27.2-2.4 36.5-3.5 9.3-1.1 22.8-3 30-4.1 7.2-1.1 20.7-3.6 30-5.5 9.3-2 23.1-5 30.5-6.9 7.4-1.9 21.2-5.7 30.5-8.5 9.3-2.9 24-7.8 32.5-11 8.5-3.2 20.4-7.9 26.5-10.5 6.1-2.5 18.7-8.4 28-13 9.3-4.6 23.3-12.1 31-16.6 7.7-4.5 20.7-12.7 29-18.3 8.2-5.5 20.2-14.1 26.5-19 6.3-4.9 16-12.7 21.5-17.4 5.5-4.7 18.4-16.9 28.6-27.1 10.2-10.2 23.6-24.7 29.9-32.1 6.3-7.4 16.1-19.8 21.8-27.5 5.7-7.7 14.6-20.3 19.7-28 5.1-7.7 13.2-20.7 18.1-29 4.8-8.2 13.8-24.9 19.9-37 6.1-12.1 14.5-29.9 18.7-39.5 4.2-9.6 11.2-27.2 15.6-39 4.4-11.8 10.5-29.4 13.6-39 3.1-9.6 8.4-27.4 11.7-39.5 3.3-12.1 5.8-22.2 5.5-22.5-0.3-0.3-0.7-0.3-0.9 0-0.2 0.3-4.8 6.1-10.2 13-5.4 6.9-13.7 17-18.4 22.5-4.7 5.5-14 15.8-20.6 22.9-6.6 7.1-17.9 18.4-25 25-7.2 6.7-17.1 15.5-22 19.7-5 4.2-13.9 11.3-20 15.9-6.1 4.6-16.6 12.1-23.5 16.6-6.9 4.5-17.4 11-23.5 14.5-6.1 3.4-16.4 8.9-23 12-6.6 3.2-18.3 8.2-26 11.2-7.7 3-20.1 7.3-27.5 9.5-7.4 2.2-19.1 5.1-26 6.6-6.9 1.4-17 3.2-22.5 4-5.5 0.8-17.2 2-26 2.7-9.5 0.7-23.5 0.9-34.5 0.5-10.2-0.3-24.1-1.3-31-2.1-6.9-0.8-18.1-2.4-25-3.6-6.9-1.1-19.7-3.9-28.5-6.1-8.8-2.2-20.5-5.6-26-7.5-5.5-1.9-14.3-5.3-19.5-7.5-5.2-2.2-12.9-5.7-17-7.8-4.1-2.1-12-6.3-17.5-9.5-5.5-3.2-15.4-9.4-22-13.8-6.6-4.4-16.3-11.3-21.5-15.2-5.2-4-14-10.9-19.5-15.5-5.5-4.6-16.1-13.8-23.5-20.4-7.4-6.6-39-37.5-70.1-68.6-31.1-31.1-63.5-63-72-71-8.5-8-21.5-19.8-28.9-26.4-7.4-6.5-21.4-18.2-31.1-26-9.7-7.7-24.3-18.9-32.5-24.8-8.2-5.8-21.2-14.7-28.9-19.6-7.7-4.9-20.1-12.5-27.5-16.7-7.4-4.3-22.3-12.2-33-17.6-10.7-5.4-26.7-12.7-35.5-16.4-8.8-3.6-21.6-8.7-28.5-11.2-6.9-2.5-19.5-6.7-28-9.4-8.5-2.7-25.2-7.4-37-10.3-11.8-3-30.3-7-41-9-10.7-2-27.6-4.7-37.5-6-9.9-1.4-26.6-3.2-37-4-10.5-0.9-24-2.1-30-2.6-6.1-0.6-29.3-1-51.6-1-22.3 0-40.8 0.2-41 0.4zm-618.9 750.3c-3.6 0.1-13.9 0.7-23 1.3-9.1 0.6-23.3 1.7-31.5 2.6-8.3 0.8-22.9 2.6-32.5 4-9.6 1.4-25.4 4-35 5.9-9.6 1.9-24.7 5.2-33.5 7.4-8.8 2.2-23.7 6.3-33 9.1-9.4 2.9-23.1 7.4-30.5 10.2-7.4 2.7-20 7.7-28 11.1-8 3.4-22.6 10.2-32.5 15.2-9.9 5.1-23.2 12.2-29.5 16-6.3 3.7-18.3 11.4-26.5 16.9-8.3 5.6-20.2 14.1-26.5 19-6.3 4.9-16 12.8-21.5 17.5-5.5 4.7-16 14.4-23.4 21.6-7.3 7.1-18.4 18.6-24.5 25.5-6.2 6.9-15.3 17.5-20.2 23.6-4.9 6.1-13.7 17.8-19.6 26-5.8 8.2-13.8 19.9-17.6 25.9-3.8 6.1-11.1 18.2-16.2 27-5.1 8.8-13.8 25.5-19.5 37-5.7 11.6-13.3 28-17 36.5-3.7 8.5-10.2 25-14.5 36.5-4.3 11.6-10.3 28.9-13.4 38.5-3.1 9.6-8.4 27.4-11.7 39.5-3.3 12.1-5.8 22.2-5.5 22.5 0.3 0.3 0.7 0.3 0.9 0 0.2-0.3 5.6-7.1 12-15.2 6.4-8.2 16.5-20.3 22.4-27 5.9-6.8 18.4-20 27.8-29.3 9.3-9.4 22.8-22 29.9-28 7-6.1 17.2-14.3 22.5-18.4 5.3-4 15.9-11.5 23.6-16.6 7.7-5.1 18.9-12.1 25-15.6 6-3.5 16.4-8.9 23-12 6.6-3.2 18.3-8.2 26-11.2 7.7-3 19.4-7.1 26-9.1 6.6-1.9 17.2-4.7 23.5-6.1 6.3-1.5 17.1-3.5 24-4.5 6.9-1.1 19.7-2.5 28.5-3.1 9.5-0.7 23.5-0.9 34.5-0.5 10.2 0.3 24.1 1.3 31 2.1 6.9 0.8 18.1 2.4 25 3.6 6.9 1.1 19.7 3.9 28.5 6.1 8.8 2.2 20.5 5.6 26 7.5 5.5 1.9 14.3 5.3 19.5 7.5 5.2 2.2 12.9 5.7 17 7.8 4.1 2.1 12 6.3 17.5 9.5 5.5 3.2 15.4 9.4 22 13.8 6.6 4.4 16.3 11.3 21.5 15.2 5.2 4 14 10.9 19.5 15.5 5.5 4.6 16.1 13.8 23.5 20.4 7.4 6.6 39 37.5 70.1 68.6 31.1 31.1 63.5 63 72 71 8.5 8 21.5 19.8 28.9 26.4 7.4 6.5 21.4 18.2 31.1 26 9.7 7.7 24.3 18.9 32.5 24.8 8.2 5.8 21.2 14.7 28.9 19.6 7.7 4.9 20.1 12.5 27.5 16.7 7.4 4.3 22.3 12.2 33 17.6 10.7 5.4 26.7 12.7 35.5 16.4 8.8 3.6 21.6 8.7 28.5 11.2 6.9 2.5 19.5 6.7 28 9.4 8.5 2.7 24.3 7.1 35 9.9 10.7 2.7 27.6 6.5 37.5 8.4 9.9 1.9 27.7 4.8 39.5 6.5 11.8 1.6 29.4 3.6 39 4.5 9.6 0.8 24.5 2 33 2.7 10.1 0.7 29.8 1 56.5 0.6 24.7-0.3 48.4-1.1 59.5-2 10.2-0.9 24.8-2.4 32.5-3.2 7.7-0.9 21.4-2.7 30.5-4.1 9.1-1.4 24.1-4.1 33.5-6 9.3-1.9 23.1-5 30.5-6.9 7.4-1.9 21.1-5.7 30.5-8.5 9.3-2.9 24-7.8 32.5-11 8.5-3.2 20.4-7.9 26.5-10.5 6-2.5 18.6-8.4 28-13 9.3-4.6 23.3-12.1 31-16.6 7.7-4.5 20.7-12.7 29-18.3 8.2-5.5 20.2-14.1 26.5-19 6.3-4.9 16-12.7 21.5-17.4 5.5-4.7 18.4-16.9 28.6-27.1 10.2-10.2 23.6-24.7 29.9-32.1 6.3-7.4 16.1-19.8 21.8-27.5 5.7-7.7 14.6-20.3 19.7-28 5.1-7.7 13.2-20.7 18.1-29 4.8-8.2 13.8-24.9 19.9-37 6.1-12.1 14.5-29.9 18.7-39.5 4.2-9.6 11.2-27.2 15.6-39 4.4-11.8 10.5-29.4 13.6-39 3.1-9.6 8.4-27.4 11.7-39.5 3.3-12.1 5.8-22.2 5.5-22.5-0.3-0.3-0.7-0.3-0.9 0-0.2 0.3-4.8 6.1-10.2 13-5.4 6.9-13.7 17-18.4 22.5-4.7 5.5-14 15.8-20.6 22.9-6.6 7.1-17.9 18.4-25 25-7.2 6.7-17.1 15.5-22 19.7-5 4.2-14 11.3-20 15.9-6.1 4.6-16.6 12.1-23.5 16.6-6.9 4.5-17.5 11-23.5 14.5-6.1 3.4-16.4 8.9-23 12-6.6 3.2-18.3 8.2-26 11.2-7.7 3-20.1 7.3-27.5 9.5-7.4 2.2-19.1 5.1-26 6.6-6.9 1.4-17 3.2-22.5 4-5.5 0.8-17.2 2-26 2.7-9.5 0.7-23.5 0.9-34.5 0.5-10.2-0.3-24.1-1.3-31-2.1-6.9-0.8-18.1-2.4-25-3.6-6.9-1.1-19.7-3.9-28.5-6.1-8.8-2.2-20.5-5.6-26-7.5-5.5-1.9-14.3-5.3-19.5-7.5-5.2-2.2-12.9-5.7-17-7.8-4.1-2.1-12-6.3-17.5-9.5-5.5-3.2-15.4-9.4-22-13.8-6.6-4.4-16.3-11.3-21.5-15.2-5.2-4-14-10.9-19.5-15.5-5.5-4.6-16.1-13.8-23.5-20.4-7.4-6.6-39-37.5-70.1-68.6-31.1-31.1-63.5-63-72-71-8.5-8-21.5-19.8-28.9-26.4-7.4-6.5-21.4-18.2-31.1-26-9.7-7.7-24.3-18.9-32.5-24.8-8.2-5.8-21.2-14.7-28.9-19.6-7.7-4.9-20.1-12.5-27.5-16.7-7.4-4.3-22.3-12.2-33-17.6-10.7-5.4-26.7-12.7-35.5-16.4-8.8-3.6-21.6-8.7-28.5-11.2-6.9-2.5-19.5-6.7-28-9.4-8.5-2.7-25.2-7.4-37-10.3-11.8-3-30.3-7-41-9-10.7-2-27.6-4.7-37.5-6-9.9-1.4-25.9-3.2-35.5-4-9.6-0.9-26.7-2-38-2.6-11.3-0.6-32.4-0.9-47-0.8-14.6 0.1-29.4 0.3-33 0.5z"/></svg>