<svg version="1.2" xmlns="http://www.w3.org/2000/svg" viewBox="0 0 3000 2997" width="3000" height="2997"><path class="a" d="m1511 1.7c72.8 0.6 145.9 2.8 162.3 4.6 16.5 1.9 50.5 6.9 75.6 11.1 25.2 4.3 59.2 10.6 75.7 14.2 16.4 3.6 41.3 9.4 55.1 12.9 13.9 3.5 45.1 12.8 69.4 20.7 24.2 7.9 63.9 21.8 88.2 31 24.3 9.2 58.3 23.1 75.6 30.8 17.4 7.7 47.1 21.8 66.2 31.4 19.1 9.5 52.4 27.6 74.1 40.2 21.6 12.5 57.1 34.9 78.7 49.8 21.7 14.8 55 38.5 74.1 52.6 19.1 14.1 50.2 39.6 69.3 56.7 19.1 17 45.7 41 59.3 53.3 13.5 12.3 43.4 42.9 66.5 68 23.1 25.1 49 54.2 57.6 64.6 8.6 10.4 30.2 38.1 48 61.5 17.8 23.4 35.1 47.8 38.4 54.3 3.3 6.5 6 14.7 6 18.2 0 4.6-8.8 11.4-33.9 26.2-18.7 10.9-50.9 29.8-71.7 42-20.8 12.2-62.3 35.9-92.2 52.6-29.9 16.7-55.8 30.4-57.5 30.4-1.7 0-15.8-16.6-31.2-37-15.5-20.4-39.9-51.2-54.3-68.5-14.5-17.4-47.6-52.8-73.6-78.8-26.1-26-66.5-62.7-89.9-81.5-23.4-18.8-66.6-50.3-96.1-69.9-29.4-19.7-76.9-47.8-105.5-62.5-28.6-14.7-74-35.6-100.9-46.3-26.8-10.7-63.7-24.4-81.9-30.3-18.2-6-46.6-14.2-63-18.4-16.5-4.2-51.6-11.9-78-17.2-26.5-5.2-51.6-9.6-63.8-9.6v1008.5l-21.3 12.2c-11.7 6.6-47.2 25.8-136.3 72.9l-38.6-20.2c-21.2-11.1-56.3-30-117.4-63.9v-1009.5h-11.8c-6.5 0-37 5-67.8 11.1-30.7 6.1-75.7 17-100 24.1-24.3 7.2-58.3 18.4-75.6 24.9-17.4 6.5-44.3 17.1-59.9 23.5-15.6 6.5-44 19.6-63 29.1-19.1 9.5-46 23.8-59.9 31.6-13.9 7.9-45.1 27.4-69.3 43.4-24.3 16-63.3 44.5-86.7 63.3-23.4 18.8-65.3 56.9-93.2 84.6-27.8 27.8-63.8 66.8-80 86.7-16.1 20-39.5 50.2-51.8 67.2-16.1 22.3-23.7 30.4-27.1 28.9-2.6-1.1-40.2-22.3-83.5-47.1-43.3-24.9-90.8-52.6-105.6-61.7-14.7-9.1-34.9-22-63-40.8l5.9-11.9c3.3-6.5 18.4-28.8 33.6-49.6 15.2-20.8 40.7-53.4 56.7-72.5 16-19 40.3-46.7 54.1-61.4 13.8-14.8 42.7-44.1 64.2-65.1 21.5-21.1 52.6-50 69.1-64.2 16.5-14.3 43.4-36.1 59.9-48.6 16.5-12.5 47.6-34.9 69.3-49.7 21.7-14.8 52.9-35.1 69.3-45.1 16.5-10 55.5-31.3 86.7-47.4 31.2-16.2 83-39.9 115-52.8 32.1-12.9 78.2-29.9 102.4-37.8 24.3-7.9 64.7-20 89.8-26.9 25.2-7 59.9-15.5 77.3-18.9 17.3-3.5 52-9.4 77.2-13.2 25.1-3.8 58.4-8.1 74-9.5 15.6-1.4 87.9-2 160.7-1.3zm-1339.9 821.3c3.8 1.9 26.1 14.5 49.5 27.9 23.4 13.4 65.2 37.4 93 53.4 27.7 16 76.6 44 108.7 62.3 32 18.3 78.1 44.7 102.4 58.7 24.2 14 55.4 32 69.3 40 13.9 8.1 67.1 38.7 118.2 68.2 51.1 29.5 107.1 61.8 124.5 71.9 17.3 10 63.4 36.6 102.4 59.2 39 22.5 88.6 51.2 110.3 63.7 21.6 12.5 52.8 30.6 69.3 40.1 16.5 9.5 57.6 33.4 91.4 53 33.8 19.6 94 55 206.4 121.5v697.9c0 383.8-1.1 708.9-2.4 722.3-1.4 14.8-4.2 26.3-7.1 29.2-3.4 3.4-8.9 4.3-19.7 3.2-8.2-0.9-28.4-3.1-44.9-4.9-16.4-1.8-52.6-6.9-80.3-11.4-27.8-4.4-71.7-12.8-97.7-18.6-26-5.7-71.4-17.7-100.8-26.6-29.5-8.8-76.3-25.1-104-36.2-27.8-11-71.7-29.9-97.7-42-26-12.1-63.6-30.8-83.5-41.7-20-10.9-49-27.6-64.6-37-15.6-9.5-41.2-26.1-56.8-36.9-15.6-10.9-44.6-32.1-64.6-47.2-19.9-15.1-55.3-44.2-78.7-64.6-23.4-20.5-62.5-57.6-86.8-82.5-24.3-24.9-57.6-60.8-73.9-79.9-16.3-19.1-41.2-50.3-55.3-69.3-14.1-19.1-37-51.7-50.9-72.5-13.9-20.8-36.4-57-50-80.4-13.5-23.4-35.7-65.2-49.1-93-13.4-27.7-32.9-71.7-43.2-97.7-10.4-25.9-24.6-64.2-31.5-85-7-20.8-19.8-66.9-28.6-102.5-8.7-35.5-19.4-84.4-23.8-108.7-4.3-24.2-9.3-58.3-11-75.6-1.8-17.4-4.8-73.4-6.8-124.5-2.7-68.2-2.7-109.3-0.2-154.4 1.9-33.8 7.1-86.3 11.6-116.6 4.5-30.4 11.7-72.9 16-94.6 4.3-21.6 12.1-55.7 17.4-75.6 5.2-19.9 17.4-60.3 27.1-89.8 9.6-29.5 24.3-70.6 32.5-91.4 8.3-20.8 20.9-50.6 28.2-66.2 7.2-15.6 16.6-33 21-38.6 6.9-9 8.7-9.8 14.7-6.6zm150.5 480.1c-3.4 17.3-7.6 52.8-9.4 78.8-1.8 26-3.3 77-3.3 113.4-0.1 36.4 1.4 88.9 3.3 116.7 1.8 27.7 6.8 68.8 11.2 91.3 4.4 22.6 12.2 58.7 17.5 80.4 5.2 21.7 16.6 60.7 25.2 86.7 8.6 26 23.3 65.3 32.7 87.4 9.5 22.1 25.5 56.9 35.8 77.2 10.2 20.4 29.7 55.5 43.4 78 13.6 22.6 34.9 55.2 47.1 72.5 12.3 17.3 29.7 40.7 38.7 52 9 11.3 31.5 37.2 50.1 57.6 18.5 20.4 54.2 56.1 79.4 79.4 25.1 23.2 59.9 53.1 77.2 66.4 17.3 13.3 46.4 34.5 64.6 47 18.2 12.6 45.8 30.3 61.4 39.5 15.6 9.1 48.2 26.5 72.5 38.6 24.3 12.2 61.9 29.2 83.5 37.8 21.7 8.6 43 16.3 47.3 17.1l7.9 1.6c3.6-150.6 4.7-353.2 4.7-547.3l0.1-352.9c-25.7-15.2-67.9-40.2-110.4-65.2-42.5-25.1-111.2-65.2-152.8-89.1-41.6-23.9-98.4-56.6-126.1-72.7-27.7-16-103.6-59.6-168.6-96.9-65-37.2-134.5-77.3-154.4-88.9-19.9-11.7-44.4-25.4-54.3-30.4-9.9-5.1-18.1-8.8-18.1-8.3-0.1 0.4-2.9 15-6.2 32.3zm2512.6-483.6l7.3 7c4 3.9 14.9 24.1 24.2 44.9 9.3 20.8 24.4 57.6 33.4 81.9 9.1 24.3 21.9 60.4 28.6 80.4 6.6 19.9 17 55.4 23 78.8 6 23.4 14.5 59.5 18.9 80.3 4.4 20.8 11.6 62.6 16 93 4.4 30.3 9.6 83.5 11.6 118.2 2.1 36.4 2.8 92.9 1.6 133.9-1 39-3.4 87.2-5.2 107.1-1.9 20-5.4 49-7.9 64.6-3.9 24.5-5.7 29.4-13.2 35.3-4.8 3.7-31.4 20.9-59.2 38.2-27.7 17.3-82.3 50.5-121.3 73.9-39 23.3-97.8 58.4-130.8 77.9-32.9 19.6-70.8 42.5-84.3 50.9-13.4 8.4-24.4 16.1-24.4 16.9 0 0.9 13.8 10.5 30.7 21.5 16.9 10.9 47.8 29.9 68.6 42.1 20.8 12.2 60.5 35.4 88.2 51.4 27.8 16 60.7 35.4 73.3 43 12.6 7.6 22.9 15.6 22.9 17.7 0 2.2-5.9 15.3-13.1 29.2-7.3 13.8-23.8 42.2-36.8 63-13 20.8-33.6 52.7-45.8 70.9-12.1 18.2-33.8 48.7-48 67.8-14.3 19-40.6 50.9-58.4 70.9-17.9 19.9-52.4 56.1-76.8 80.4-24.3 24.2-61.2 59-82 77.3-20.8 18.2-54.8 45.9-75.6 61.6-20.8 15.7-52.7 38.5-70.9 50.6-18.2 12.1-47.3 30.7-64.6 41.3-17.4 10.6-38.6 22.3-47.3 26-11.5 5-16.6 5.8-18.9 3.2-2-2.2-3.5-67.4-5-351.5l35.6-27.4c19.6-15 52.6-43.4 73.4-63 20.8-19.6 47.1-45.5 58.4-57.7 11.3-12.1 23.7-26.6 34.6-42.5l-27.6-17c-15.2-9.4-50.3-30.4-78-46.7-27.7-16.4-79.5-46.5-115-67.1-35.6-20.5-98-56.7-138.7-80.5-40.7-23.7-88.9-51.3-107.1-61.2-24.1-13.1-34-17-36.3-14.4-2 2.3-3.7 169.9-6.3 960.9l-58.3 11.2c-32 6.1-70.3 13.3-85.1 15.9-14.7 2.6-56.8 7.2-93.5 10.3-36.7 3-67.6 4.8-68.7 3.9-1-0.8-2.2-326.9-3.2-1447.7l50.4-30.5c27.8-16.7 83.8-49.6 124.5-72.9 40.7-23.4 85.9-48.8 100.4-56.4 21.9-11.5 26.7-13.1 28.8-9.1 1.4 2.6 3.4 26 4.4 52 1.1 26 1.9 81.3 2 198.5l71.5 41c39.4 22.5 104.9 59.9 145.7 83 40.8 23.1 88 49 104.9 57.5 26.4 13.3 31.7 15 37.8 11.9 3.9-2 44.7-24.9 90.6-50.8 46-26 102-58.2 124.5-71.7 22.5-13.4 77.1-44.9 121.3-70 44.2-25 87.9-49.7 113.9-63.9l-2-44.1c-1.1-24.3-4.1-76.1-6.7-115.1-2.6-39-6.8-82.9-9.4-97.7-2.6-14.7-6.6-28.9-9-31.5-3.9-4.1-7.9-2.8-33.8 11.4-16.1 8.8-74.7 42.4-130.2 74.5-55.4 32.1-129.9 75.3-165.4 96-35.5 20.7-77.4 44.2-93 52.2-15.6 8-32.2 16.1-37 17.9-7 2.7-9.4 2.3-12.6-1.9-2.9-3.8-4.6-36.2-6.4-119-1.3-62.6-1.8-137.5 0.2-219.2l223.4-128.5c122.9-70.6 242.5-139.7 265.9-153.4 23.3-13.7 58-34.2 77-45.4 19.1-11.2 43.8-25.1 55-30.9z"/></svg>