<svg version="1.2" xmlns="http://www.w3.org/2000/svg" viewBox="0 0 136 1080"><path class="a" d="m70.4 7.8c-4 4.2-8.3 9.1-9.7 10.7-1.3 1.6-5 6.8-8.2 11.5-3.2 4.7-8 13-10.8 18.5-2.7 5.5-6.4 14.5-8.3 20-1.8 5.5-4 13.8-4.8 18.5-0.8 4.7-1.7 12.3-2.1 17-0.5 5.8-0.2 11.5 0.9 18 0.8 5.2 2.7 13.1 4.2 17.5 1.4 4.4 5.1 12.9 8.2 19 3.1 6.1 9 16.2 13 22.5 4.1 6.3 14.3 20.9 22.7 32.5 8.3 11.6 17.2 23.9 19.7 27.5 2.4 3.6 6.9 10.3 9.8 15 2.9 4.7 7.9 13.7 11.1 20 3.1 6.3 6.6 14.2 7.8 17.5 1.1 3.3 2.8 9.1 3.7 13 1.1 4.7 1.7 11.4 1.7 20.5 0 8.9-0.6 16.4-1.7 22-1 4.7-2.3 10.5-3.1 13-0.7 2.5-2.7 8.1-4.5 12.5-1.7 4.4-5.1 11.6-7.5 16-2.4 4.4-6.9 11.7-10.2 16.1-3.2 4.5-12.6 15.3-20.9 24-8.3 8.8-16.7 17.7-18.6 19.9-1.9 2.2-6.4 8.3-9.9 13.5-3.4 5.2-8.7 14.4-11.5 20.5-2.9 6.1-6.2 13.7-7.3 17-1.1 3.3-2.9 10.7-4.2 16.5-1.5 7.4-2.2 14.3-2.2 23.5-0.1 7.6 0.4 15.5 1.2 19 0.7 3.3 2.2 8.7 3.3 12 1 3.3 3.7 9.8 5.9 14.5 2.2 4.7 7 13.5 10.7 19.5 3.6 6 7 11.5 7.4 12 0.4 0.5 2.7 3.8 5.1 7.2 2.3 3.4 5.5 8.1 7.2 10.5 1.6 2.4 6.6 9.3 11.1 15.3 4.4 6 10.8 14.8 14.1 19.5 3.3 4.7 9.1 13.5 12.8 19.5 3.8 6 9 15.5 11.6 21 2.5 5.5 5.9 13.6 7.3 18 1.5 4.4 3.4 13 4.3 19 1.3 9.2 1.3 12.7 0.3 21.5-0.6 5.8-1.8 13.4-2.6 17-0.9 3.6-2.5 9.4-3.6 13-1.1 3.6-4 10.5-6.3 15.5-2.3 5-6.6 12.8-9.6 17.5-3 4.7-8.1 11.6-11.4 15.5-3.2 3.9-8.1 9.2-10.9 12-2.8 2.7-5.6 5.7-6.1 6.6-0.5 1-4.4 5.5-8.6 10.1-4.2 4.6-10.6 12.7-14.3 18.1-3.6 5.3-7.9 12.3-9.5 15.4-1.6 3.2-4.5 9.6-6.4 14.3-2 4.7-4.7 13-6.1 18.5-1.4 5.5-3 14.7-3.6 20.5-0.6 5.8-0.9 13.6-0.5 17.5 0.4 3.9 1.1 9 1.6 11.5 0.5 2.5 1.9 7.6 3.1 11.5 1.2 3.9 5.1 12.9 8.7 20 3.6 7.2 10.7 19.1 15.7 26.5 5 7.4 11.5 17 14.5 21.2l5.4 7.8h-79.5c-1.2-249.2 0-1080 0-1080l77.5 0.1z"/></svg>